<?xml version="1.0" encoding="UTF-8"?>
<svg id="Layer_1" data-name="Layer 1" xmlns="http://www.w3.org/2000/svg" viewBox="0 0 620.89 208.62">
  <defs>
    <style>
      .cls-1 {
        font-family: MontserratRoman-Medium, Montserrat;
        font-size: 37.05px;
        font-variation-settings: 'wght' 500;
        font-weight: 500;
      }

      .cls-2, .cls-3 {
        stroke-width: 0px;
      }

      .cls-2, .cls-4 {
        fill: #000;
      }

      .cls-3, .cls-5 {
        fill: #0fc900;
      }
    </style>
  </defs>
  <g>
    <path class="cls-2" d="M.78,103.57V6.9h41.84c8.65,0,16.11,1.4,22.37,4.21,6.26,2.81,11.09,6.83,14.5,12.08,3.4,5.25,5.11,11.46,5.11,18.64s-1.7,13.51-5.11,18.71c-3.41,5.2-8.24,9.16-14.5,11.88-6.26,2.72-13.72,4.07-22.37,4.07H13.07l10.22-9.67v36.73H.78ZM23.29,69.32l-10.22-10.63h28.31c6.81,0,11.97-1.47,15.47-4.42,3.5-2.94,5.25-7.09,5.25-12.43s-1.75-9.46-5.25-12.36c-3.5-2.9-8.65-4.35-15.47-4.35H13.07l10.22-10.63v54.82ZM62.36,103.57l-24.3-35.07h24.03l24.3,35.07h-24.03Z"/>
    <path class="cls-2" d="M131.69,105.08c-10.59,0-19.26-3.4-26.03-10.22-6.77-6.81-10.15-15.47-10.15-25.96s3.43-18.87,10.29-25.68c6.86-6.81,15.54-10.22,26.03-10.22s19.38,3.61,26.38,10.84c7,7.23,10.22,17.1,9.67,29.62h-53.85c.37,4.33,2.16,7.94,5.39,10.84,3.22,2.9,7.64,4.35,13.26,4.35,3.4,0,6.42-.67,9.04-2,2.62-1.33,4.49-3.2,5.59-5.59h19.75c-2.03,7.09-6.26,12.87-12.7,17.33-6.44,4.47-13.99,6.7-22.65,6.7ZM131.27,48.33c-4.33,0-7.94,1.13-10.84,3.38-2.9,2.26-4.81,5.36-5.73,9.32h32.45c-1.01-4.33-3.02-7.53-6.01-9.6-2.99-2.07-6.28-3.11-9.87-3.11Z"/>
    <path class="cls-2" d="M213.57,105.08c-10.4,0-19.06-3.47-25.96-10.42-6.9-6.95-10.36-15.49-10.36-25.62s3.45-18.66,10.36-25.62c6.9-6.95,15.56-10.43,25.96-10.43,9.2,0,16.92,2.58,23.13,7.73,6.21,5.16,10.29,11.88,12.22,20.16h-19.61c-3.04-7.18-8.29-10.77-15.74-10.77-5.06,0-9.21,1.73-12.43,5.18-3.22,3.45-4.83,8.03-4.83,13.74s1.61,10.29,4.83,13.74c3.22,3.45,7.36,5.18,12.43,5.18,7.46,0,12.7-3.59,15.74-10.77h19.61c-1.93,8.29-6.01,15.01-12.22,20.16-6.21,5.16-13.93,7.73-23.13,7.73Z"/>
    <path class="cls-2" d="M271.98,131.46c-3.78,0-7.55-.6-11.32-1.79-3.78-1.2-6.9-2.85-9.39-4.97l7.87-15.47c1.66,1.56,3.57,2.76,5.73,3.59,2.16.83,4.35,1.24,6.56,1.24,2.95,0,5.32-.71,7.11-2.14,1.79-1.43,3.43-3.8,4.9-7.11l3.87-9.11,1.66-2.35,26.79-64.07h20.57l-33.55,78.85c-2.4,6.08-5.13,10.79-8.22,14.15-3.09,3.36-6.49,5.73-10.22,7.11s-7.85,2.07-12.36,2.07ZM284.69,106.47l-33-77.19h22.09l25.82,62.28-14.91,14.91Z"/>
    <path class="cls-2" d="M376.24,105.08c-10.4,0-19.06-3.47-25.96-10.42-6.9-6.95-10.36-15.49-10.36-25.62s3.45-18.66,10.36-25.62c6.9-6.95,15.56-10.43,25.96-10.43,9.21,0,16.92,2.58,23.13,7.73,6.21,5.16,10.29,11.88,12.22,20.16h-19.61c-3.04-7.18-8.29-10.77-15.74-10.77-5.06,0-9.21,1.73-12.43,5.18-3.22,3.45-4.83,8.03-4.83,13.74s1.61,10.29,4.83,13.74c3.22,3.45,7.36,5.18,12.43,5.18,7.46,0,12.71-3.59,15.74-10.77h19.61c-1.93,8.29-6.01,15.01-12.22,20.16-6.21,5.16-13.93,7.73-23.13,7.73Z"/>
    <path class="cls-2" d="M424.43,103.57V0h18.92v103.57h-18.92Z"/>
    <path class="cls-2" d="M493.34,105.08c-10.59,0-19.26-3.4-26.03-10.22-6.77-6.81-10.15-15.47-10.15-25.96s3.43-18.87,10.29-25.68c6.86-6.81,15.54-10.22,26.03-10.22s19.38,3.61,26.38,10.84c6.99,7.23,10.22,17.1,9.67,29.62h-53.86c.37,4.33,2.16,7.94,5.38,10.84,3.22,2.9,7.64,4.35,13.26,4.35,3.4,0,6.42-.67,9.04-2,2.62-1.33,4.49-3.2,5.59-5.59h19.75c-2.03,7.09-6.26,12.87-12.7,17.33-6.45,4.47-13.99,6.7-22.65,6.7ZM492.93,48.33c-4.33,0-7.94,1.13-10.84,3.38-2.9,2.26-4.81,5.36-5.73,9.32h32.45c-1.01-4.33-3.02-7.53-6.01-9.6-2.99-2.07-6.28-3.11-9.87-3.11Z"/>
    <path class="cls-3" d="M559.6,103.57V5.52h61.04v19.06h-41.01v20.16h32.73v19.06h-32.73v20.71h41.01v19.06h-61.04Z"/>
  </g>
  <text class="cls-1" transform="translate(0 199.02)"><tspan class="cls-4" x="0" y="0">Give your </tspan><tspan class="cls-5" x="191.21" y="0">Gadgets</tspan><tspan class="cls-4" x="353.26" y="0" xml:space="preserve"> a </tspan><tspan class="cls-5" x="397.01" y="0">Second Life</tspan></text>
</svg>